<svg width="70" height="70" viewBox="0 0 70 70" fill="none" xmlns="http://www.w3.org/2000/svg">
<path opacity="0.24" d="M46.6667 5.8335H43.75C35.4988 5.8335 31.3775 5.8335 28.8137 8.39725C26.25 10.961 26.25 15.0852 26.25 23.3335V46.6668C26.25 54.9181 26.25 59.0422 28.8137 61.606C31.3746 64.1668 35.4988 64.1668 43.7442 64.1668H46.6667C54.915 64.1668 59.0392 64.1668 61.6029 61.6031C64.1667 59.0422 64.1667 54.9152 64.1667 46.6668V23.3335C64.1667 15.0852 64.1667 10.9581 61.6029 8.39725C59.0392 5.83641 54.915 5.8335 46.6667 5.8335Z" fill="#FF2C2C"/>
<path fill-rule="evenodd" clip-rule="evenodd" d="M45.9378 34.9386C45.9378 34.3584 45.7074 33.802 45.2971 33.3918C44.8869 32.9815 44.3305 32.7511 43.7503 32.7511H11.7457L17.4653 27.8511C17.6836 27.6641 17.863 27.4361 17.9932 27.1798C18.1234 26.9236 18.2018 26.6442 18.224 26.3577C18.2462 26.0711 18.2118 25.783 18.1226 25.5098C18.0335 25.2365 17.8914 24.9835 17.7045 24.7652C17.5176 24.5469 17.2895 24.3675 17.0333 24.2374C16.777 24.1072 16.4977 24.0288 16.2111 24.0065C15.9246 23.9843 15.6364 24.0188 15.3632 24.1079C15.09 24.1971 14.837 24.3391 14.6187 24.5261L4.41032 33.2761C4.17018 33.4814 3.97738 33.7364 3.84518 34.0234C3.71298 34.3104 3.64453 34.6226 3.64453 34.9386C3.64453 35.2545 3.71298 35.5668 3.84518 35.8538C3.97738 36.1407 4.17018 36.3957 4.41032 36.6011L14.6187 45.3511C15.0596 45.7285 15.6324 45.9154 16.2111 45.8706C16.7898 45.8257 17.327 45.5528 17.7045 45.1119C18.082 44.671 18.2689 44.0982 18.224 43.5194C18.1792 42.9407 17.9062 42.4036 17.4653 42.0261L11.7487 37.1261H43.7503C44.3305 37.1261 44.8869 36.8956 45.2971 36.4854C45.7074 36.0751 45.9378 35.5187 45.9378 34.9386Z" fill="#FF2C2C"/>
</svg>
