<svg width="36" height="36" viewBox="0 0 36 36" fill="none" xmlns="http://www.w3.org/2000/svg">
<path opacity="0.32" d="M21.1512 11.75H12.3515C11.561 11.75 10.918 12.2171 10.918 12.792C10.918 13.3662 11.561 13.8333 12.3515 13.8333H21.1511C21.9416 13.8333 22.5846 13.3662 22.5846 12.792C22.5846 12.2171 21.9416 11.75 21.1512 11.75Z" fill="#637381"/>
<path d="M23.6512 16.9585H14.8515C14.061 16.9585 13.418 17.4256 13.418 18.0005C13.418 18.5747 14.061 19.0418 14.8515 19.0418H23.6511C24.4416 19.0418 25.0846 18.5747 25.0846 18.0005C25.0846 17.4256 24.4416 16.9585 23.6512 16.9585Z" fill="#637381"/>
<path d="M21.1512 22.1668H12.3515C11.561 22.1668 10.918 22.634 10.918 23.2088C10.918 23.783 11.561 24.2502 12.3515 24.2502H21.1511C21.9416 24.2502 22.5846 23.783 22.5846 23.2088C22.5846 22.634 21.9416 22.1668 21.1512 22.1668Z" fill="#637381"/>
</svg>
