<svg width="264" height="251" viewBox="0 0 264 251" fill="none" xmlns="http://www.w3.org/2000/svg">
    <path d="M92.3899 147.285C88.0072 146.387 83.7243 145.057 79.6039 143.315C75.5511 141.6 71.6742 139.495 68.0278 137.032C64.4094 134.587 61.0331 131.801 57.9447 128.714C54.8578 125.624 52.0724 122.248 49.6264 118.63C47.1637 114.984 45.0598 111.108 43.3439 107.056C41.6006 102.935 40.2706 98.6502 39.3735 94.2661C38.4517 89.7471 37.9876 85.147 37.9883 80.5349H37.9977C37.9916 80.3459 37.9883 80.1558 37.9883 79.9651C37.9883 77.7622 38.4222 75.5806 39.2652 73.5454C40.1082 71.5102 41.3439 69.661 42.9016 68.1034C44.4594 66.5457 46.3086 65.3099 48.3438 64.467C50.379 63.624 52.5604 63.1904 54.7633 63.1904C59.2122 63.1904 63.4788 64.9576 66.6246 68.1034C69.7705 71.2492 71.5379 75.5162 71.5379 79.9651C71.5379 80.3025 71.5279 80.6377 71.5081 80.9706C71.5923 90.1401 75.2912 98.9057 81.8012 105.364C88.3112 111.822 97.1065 115.45 106.276 115.461C115.102 115.451 123.595 112.09 130.036 106.057C136.478 100.024 140.388 91.7692 140.975 82.963C140.797 81.9736 140.707 80.9703 140.708 79.9651C140.708 77.7622 141.141 75.5807 141.984 73.5454C142.827 71.5101 144.063 69.6605 145.62 68.1028C147.178 66.5451 149.027 65.3099 151.063 64.467C153.098 63.624 155.279 63.1902 157.482 63.1904C159.685 63.1904 161.866 63.624 163.902 64.467C165.937 65.31 167.786 66.5457 169.343 68.1034C170.901 69.6611 172.136 71.5102 172.979 73.5454C173.822 75.5806 174.255 77.7623 174.255 79.9651C174.255 80.1558 174.252 80.3459 174.245 80.5349H174.255C174.256 85.147 173.793 89.747 172.872 94.2661C171.974 98.6502 170.645 102.935 168.901 107.056C167.185 111.108 165.081 114.984 162.619 118.63C160.173 122.249 157.387 125.625 154.298 128.714C151.211 131.802 147.834 134.588 144.214 137.032C140.569 139.496 136.693 141.6 132.641 143.315C128.519 145.057 124.236 146.386 119.852 147.285C115.334 148.207 110.733 148.671 106.121 148.669C101.509 148.671 96.9087 148.207 92.3899 147.285Z" fill="#4ADDCA"/>
    <path opacity="0.34" d="M106.124 148.667C101.512 148.67 96.9119 148.206 92.3933 147.283C88.0108 146.385 83.728 145.056 79.6079 143.313C75.5551 141.598 71.6785 139.494 68.0324 137.03C64.4138 134.586 61.0373 131.8 57.9492 128.713C54.8623 125.624 52.0772 122.247 49.6315 118.629C47.1676 114.984 45.063 111.107 43.3473 107.056C41.6041 102.934 40.2743 98.6501 39.3774 94.2662C38.4556 89.7473 37.9915 85.1475 37.9922 80.5355H38.0027C37.9955 80.307 37.9922 80.1306 37.9922 79.9635C37.9879 77.7204 38.4365 75.4995 39.311 73.4339C40.1531 71.4413 41.374 69.6311 42.9061 68.104C44.4342 66.572 46.2452 65.3512 48.2385 64.5094C50.3044 63.6349 52.5256 63.1862 54.7689 63.1905C58.3153 63.1815 61.772 64.3049 64.6356 66.3971C66.0205 67.4058 67.2435 68.6199 68.2621 69.9976C69.2913 71.3875 70.0986 72.929 70.655 74.5666C70.1985 77.4825 69.9693 80.4296 69.9698 83.381C69.9866 98.3128 75.9257 112.628 86.484 123.186C97.0424 133.745 111.358 139.684 126.29 139.701C132.64 139.708 138.946 138.64 144.939 136.54C144.676 136.722 144.44 136.882 144.22 137.031C140.575 139.495 136.699 141.6 132.646 143.314C128.525 145.057 124.242 146.387 119.859 147.284C115.339 148.207 110.737 148.671 106.124 148.667Z" fill="#184E7F"/>
    <path d="M106.123 148.668C101.51 148.67 96.91 148.207 92.391 147.285C88.0082 146.388 83.7253 145.058 79.605 143.315C75.5515 141.601 71.6745 139.496 68.0289 137.031C64.4094 134.587 61.0327 131.801 57.9448 128.713C54.8578 125.624 52.0723 122.248 49.6264 118.631C47.1646 114.984 45.0607 111.108 43.3439 107.057C41.6013 102.935 40.2711 98.6506 39.3729 94.2667C38.4524 89.7474 37.9885 85.1475 37.9883 80.5355H37.9988C37.9916 80.3113 37.9883 80.13 37.9883 79.9646C37.986 78.0679 38.3061 76.1842 38.935 74.3949C39.5419 72.6684 40.4286 71.0539 41.5593 69.615C42.679 68.1868 44.0226 66.9494 45.5379 65.9506C47.0734 64.9362 48.7662 64.1828 50.5478 63.7217C50.3064 66.1 50.1854 68.4892 50.1852 70.8797C50.2062 89.3805 57.5648 107.118 70.6469 120.2C83.7289 133.282 101.466 140.64 119.967 140.661C129.044 140.678 138.037 138.913 146.435 135.467C145.691 136.013 144.945 136.537 144.217 137.029C140.572 139.494 136.696 141.598 132.643 143.312C128.522 145.054 124.239 146.384 119.856 147.283C115.336 148.205 110.735 148.67 106.123 148.668Z" fill="#184E7F"/>
    <path d="M171.605 1.38338C175.988 2.28159 180.272 3.61136 184.393 5.35323C188.445 7.06839 192.321 9.17261 195.967 11.6363C199.585 14.0812 202.962 16.8666 206.05 19.9546C209.137 23.0441 211.923 26.4204 214.371 30.0378C216.833 33.6841 218.936 37.5601 220.651 41.6116C222.395 45.733 223.724 50.0173 224.622 54.4014C225.544 58.9204 226.008 63.5209 226.008 68.133H225.997C226.003 68.3231 226.008 68.5138 226.008 68.705C226.008 73.1539 224.241 77.4205 221.095 80.5664C217.949 83.7122 213.682 85.4795 209.233 85.4795C204.784 85.4795 200.518 83.7122 197.372 80.5664C194.226 77.4205 192.459 73.1539 192.459 68.705C192.459 68.3709 192.469 68.038 192.488 67.7088C192.443 58.4934 188.742 49.6728 182.197 43.1848C175.652 36.6969 166.8 33.0725 157.584 33.1079C148.369 33.1433 139.544 36.8356 133.05 43.3736C126.555 49.9116 122.922 58.7604 122.948 67.9759V68.133H122.737C122.737 68.2314 122.737 68.3314 122.737 68.4303C122.711 72.7897 120.962 76.962 117.87 80.0358C114.779 83.1095 110.597 84.8348 106.237 84.8348C101.878 84.8348 97.6953 83.1095 94.6037 80.0358C91.5122 76.962 89.7628 72.7897 89.7376 68.4303C89.7376 68.3314 89.7376 68.2319 89.7376 68.133H89.7415C89.7409 63.521 90.2045 58.9206 91.125 54.4014C92.0236 50.0176 93.3534 45.7333 95.0949 41.6111C96.8115 37.5602 98.915 33.6845 101.376 30.0378C106.278 22.7843 112.526 16.5378 119.779 11.6363C127.148 6.6524 135.427 3.16847 144.142 1.38338C153.203 -0.461472 162.544 -0.461472 171.605 1.38338Z" fill="#4ADDCA"/>
    <path opacity="0.34" d="M209.231 85.4797C206.739 85.4837 204.278 84.9304 202.028 83.8609C199.777 82.7914 197.794 81.2327 196.223 79.2983C196.298 78.0137 196.336 76.7063 196.336 75.4129C196.316 57.9318 189.363 41.1722 177.002 28.8112C164.641 16.4502 147.882 9.49721 130.401 9.47758C127.722 9.47749 125.046 9.63855 122.387 9.95997C125.257 8.20542 128.254 6.66627 131.352 5.35501C135.473 3.61205 139.757 2.28176 144.14 1.3843C148.66 0.46188 153.261 -0.00142179 157.874 0.000985898C162.486 -0.00129955 167.086 0.462002 171.605 1.3843C175.989 2.28079 180.273 3.61111 184.393 5.35501C188.446 7.0696 192.322 9.17343 195.967 11.6373C199.586 14.0818 202.963 16.8676 206.051 19.956C209.138 23.0456 211.924 26.4218 214.371 30.0394C216.833 33.6858 218.936 37.562 220.652 41.6135C222.395 45.735 223.725 50.0189 224.622 54.403C225.544 58.9219 226.008 63.5222 226.007 68.1341H225.996C226.003 68.3506 226.007 68.537 226.007 68.704C226.011 70.9472 225.563 73.168 224.688 75.2337C223.846 77.2271 222.625 79.0381 221.093 80.5662C219.565 82.0977 217.755 83.3184 215.763 84.1608C213.697 85.0356 211.475 85.4844 209.231 85.4797Z" fill="#184E7F"/>
    <path d="M211.276 85.3564C211.576 82.7848 211.726 80.1982 211.726 77.6092C211.707 60.1281 204.754 43.3686 192.393 31.0075C180.032 18.6465 163.272 11.6936 145.791 11.6739C130.381 11.6801 115.459 17.0767 103.609 26.929C105.481 24.469 107.515 22.1376 109.7 19.9507C112.788 16.8626 116.164 14.0773 119.783 11.6326C123.429 9.1694 127.305 7.06561 131.357 5.35029C135.478 3.60737 139.761 2.27708 144.145 1.37958C148.665 0.45839 153.266 -0.00371375 157.879 2.2475e-05C162.491 -0.00226297 167.092 0.461038 171.611 1.38333C175.994 2.28 180.278 3.61031 184.399 5.35405C188.451 7.0686 192.327 9.17243 195.973 11.6364C199.592 14.0808 202.968 16.8667 206.056 19.955C209.143 23.0449 211.929 26.4211 214.377 30.0385C216.839 33.6848 218.942 37.5611 220.657 41.6126C222.4 45.734 223.731 50.0179 224.628 54.402C225.549 58.9209 226.013 63.5213 226.012 68.1332H226.002C226.009 68.298 226.012 68.4822 226.012 68.703C226.015 72.821 224.5 76.7958 221.758 79.8677C219.048 82.9107 215.322 84.8612 211.278 85.3548L211.276 85.3564Z" fill="#184E7F"/>
    <path d="M22.0496 230.988C12.1373 230.988 4.64265 223.735 4.64265 214.065V188.559H14.011V213.944C14.011 218.537 17.3956 221.982 22.0496 221.982C26.6431 221.982 30.0882 218.537 30.0882 213.944V188.559H39.4565V214.065C39.4565 223.735 31.9014 230.988 22.0496 230.988Z" fill="#184E7F"/>
    <path d="M67.0488 228.394C60.5212 228.394 53.8727 225.795 49.9441 221.867L56.3508 213.949C59.4333 217.031 64.0872 219.147 68.3181 219.147C71.5819 219.147 74.6644 217.817 74.9061 215.702C75.2688 213.465 72.1863 212.619 67.7741 211.531C59.4333 209.416 53.9936 205.306 55.0211 197.932C56.0486 190.256 63.3619 185.24 73.2138 185.24C79.6809 185.24 84.758 187.476 87.4778 190.377L81.5546 198.295C79.4392 196.058 75.571 194.487 71.8236 194.487C68.439 194.487 65.9609 195.756 65.7191 197.569C65.4169 199.685 68.5598 200.833 72.1258 201.679C75.6314 202.465 87.0547 205.366 85.6646 215.279C84.5766 223.136 76.4776 228.394 67.0488 228.394ZM111.41 196.844H122.35L103.19 232.262C100.652 236.916 96.2393 239.878 91.6458 239.878C88.6842 239.878 85.2391 238.609 83.1841 236.675L88.0194 228.999C88.8051 229.845 90.0744 230.389 91.2832 230.389C92.6129 230.389 93.8821 229.784 94.7888 228.273L95.514 227.065L87.7776 196.844H98.9592L102.646 214.916L111.41 196.844ZM131.394 228.394C125.41 228.394 121.421 226.158 118.641 223.801L123.839 217.636C126.015 219.509 128.674 220.839 132.119 220.839C134.718 220.839 136.592 220.114 136.773 218.784C137.015 217.334 134.96 216.79 132.119 216.185C127.465 215.158 121.059 213.647 122.086 206.273C123.053 199.443 129.46 196.119 136.652 196.119C142.213 196.119 145.9 198.053 148.559 200.108L143.361 206.273C141.125 204.762 138.889 203.674 135.927 203.674C133.872 203.674 132.119 204.218 131.878 205.487C131.696 206.938 133.751 207.421 136.532 208.026C141.186 208.932 147.653 210.504 146.565 217.878C145.658 224.768 139.131 228.394 131.394 228.394ZM164.611 205.789L163.221 215.52C162.919 217.636 163.947 218.905 166.364 218.905C167.875 218.905 169.265 218.422 170.474 217.878L169.205 227.004C167.21 227.971 165.276 228.394 162.919 228.394C155.001 228.394 152.282 223.68 153.188 217.152L154.82 205.789H150.408L151.677 196.844H156.089L157.117 189.41H166.908L165.881 196.844H173.436L172.167 205.789H164.611ZM192.854 196.119C202.162 196.119 208.206 203.009 206.816 212.438C206.695 213.284 206.513 214.432 206.211 215.218H184.211C184.815 218.18 187.172 219.993 190.557 219.993C193.7 219.993 196.48 218.422 197.991 216.971L203.673 222.592C199.865 226.158 194.667 228.394 189.046 228.394C179.194 228.394 172.848 221.383 174.117 212.075C175.447 203.009 183.485 196.119 192.854 196.119ZM191.585 204.46C188.804 204.46 186.326 206.273 184.997 209.174H196.843C196.42 206.273 194.365 204.46 191.585 204.46ZM251.23 196.119C258.181 196.119 261.928 200.592 260.961 207.482L258.12 227.669H248.329L250.807 210.443C251.17 207.542 249.659 205.608 246.818 205.608C244.038 205.608 241.862 207.3 241.136 209.899L238.658 227.669H228.867L231.285 210.443C231.708 207.542 230.136 205.608 227.296 205.608C224.334 205.608 221.977 207.603 221.554 210.564L219.136 227.669H209.345L213.696 196.844H223.488L223.125 199.443C225.664 197.267 228.625 196.119 232.01 196.119C236.059 196.119 239.021 197.751 240.532 200.592C243.494 197.63 247.12 196.119 251.23 196.119Z" fill="#4ADDCA"/>
</svg>
