<svg width="141" height="36" viewBox="0 0 141 36" fill="none" xmlns="http://www.w3.org/2000/svg">
    <path d="M13.1614 35.6331C12.1011 35.4159 11.0649 35.0941 10.0681 34.6726C9.08759 34.2577 8.14965 33.7486 7.26748 33.1526C6.39207 32.561 5.57524 31.8872 4.82808 31.1402C4.08126 30.3928 3.40737 29.5759 2.81561 28.7007C2.21981 27.8185 1.71081 26.8807 1.29569 25.9005C0.873935 24.9034 0.552162 23.8669 0.33512 22.8062C0.11211 21.7129 -0.000162886 20.6001 1.77366e-07 19.4843H0.00227195C0.000809709 19.4385 1.77366e-07 19.3925 1.77366e-07 19.3464C1.7708e-07 18.8134 0.104974 18.2857 0.308929 17.7933C0.512884 17.3009 0.811832 16.8535 1.18869 16.4767C1.56555 16.0998 2.01293 15.8009 2.50532 15.5969C2.9977 15.393 3.52545 15.2881 4.0584 15.2881C5.13472 15.2881 6.16694 15.7156 6.92801 16.4767C7.68908 17.2378 8.11667 18.2701 8.11667 19.3464C8.11667 19.428 8.11425 19.5091 8.10946 19.5897C8.12984 21.808 9.02472 23.9287 10.5997 25.4911C12.1747 27.0535 14.3025 27.9314 16.521 27.934C18.6562 27.9316 20.7108 27.1184 22.2692 25.6588C23.8276 24.1992 24.7735 22.2022 24.9156 20.0717C24.8725 19.8323 24.8509 19.5896 24.851 19.3464C24.8509 18.8134 24.9559 18.2857 25.1598 17.7933C25.3637 17.3009 25.6626 16.8534 26.0395 16.4765C26.4163 16.0997 26.8638 15.8008 27.3562 15.5969C27.8485 15.393 28.3763 15.288 28.9093 15.2881C29.4422 15.2881 29.9699 15.393 30.4623 15.5969C30.9546 15.8009 31.402 16.0998 31.7788 16.4767C32.1556 16.8535 32.4545 17.3009 32.6584 17.7933C32.8623 18.2856 32.9672 18.8135 32.9671 19.3464C32.9671 19.3925 32.9663 19.4385 32.9647 19.4843H32.9671C32.9674 20.6 32.8552 21.7129 32.6324 22.8062C32.4153 23.8669 32.0936 24.9034 31.6718 25.9005C31.2567 26.8807 30.7477 27.8185 30.1519 28.7007C29.5602 29.5762 28.8862 30.393 28.1389 31.1402C27.3919 31.8874 26.575 32.5613 25.6993 33.1526C24.8174 33.7487 23.8797 34.2578 22.8993 34.6726C21.9022 35.094 20.8659 35.4157 19.8054 35.6331C18.7122 35.8562 17.5992 35.9684 16.4834 35.9679C15.3676 35.9684 14.2546 35.8562 13.1614 35.6331Z" fill="#4ADDCA"/>
    <path opacity="0.34" d="M16.4832 35.9675C15.3675 35.9682 14.2545 35.856 13.1613 35.6327C12.101 35.4155 11.0649 35.0938 10.0681 34.6722C9.08762 34.2574 8.14974 33.7483 7.26765 33.1522C6.39219 32.5607 5.57532 31.8869 4.82821 31.1399C4.0814 30.3926 3.40758 29.5757 2.81591 28.7004C2.21981 27.8184 1.71065 26.8807 1.29557 25.9004C0.873835 24.9034 0.552101 23.8669 0.335127 22.8063C0.112106 21.713 -0.000167533 20.6002 7.35256e-06 19.4844H0.00253876C0.000810653 19.4291 7.35256e-06 19.3864 7.35256e-06 19.346C-0.001029 18.8033 0.107502 18.266 0.319062 17.7663C0.522789 17.2842 0.818175 16.8463 1.18883 16.4768C1.55853 16.1062 1.99664 15.8108 2.47891 15.6072C2.97871 15.3956 3.51607 15.2871 4.0588 15.2881C4.91679 15.2859 5.75307 15.5577 6.44585 16.0639C6.78091 16.3079 7.07678 16.6016 7.32321 16.9349C7.57222 17.2712 7.76751 17.6441 7.90212 18.0403C7.79168 18.7458 7.73625 19.4588 7.73635 20.1728C7.74043 23.7853 9.17727 27.2485 11.7317 29.8029C14.286 32.3573 17.7494 33.7942 21.3618 33.7983C22.8982 33.8001 24.4237 33.5416 25.8737 33.0335C25.81 33.0777 25.7531 33.1164 25.6998 33.1524C24.8179 33.7486 23.8801 34.2577 22.8997 34.6725C21.9028 35.0941 20.8665 35.4158 19.806 35.633C18.7125 35.8563 17.5993 35.9684 16.4832 35.9675Z" fill="#184E7F"/>
    <path d="M16.4838 35.9676C15.368 35.9681 14.255 35.856 13.1617 35.6331C12.1013 35.4159 11.0652 35.0942 10.0684 34.6725C9.0877 34.2579 8.14972 33.7487 7.26774 33.1523C6.39208 32.561 5.57514 31.8871 4.82808 31.1398C4.08125 30.3926 3.40736 29.5759 2.81561 28.7007C2.22002 27.8184 1.71103 26.8807 1.29569 25.9006C0.874094 24.9034 0.552285 23.8669 0.334993 22.8063C0.112279 21.7129 4.99159e-05 20.6001 2.89791e-06 19.4843H0.00253431C0.000806198 19.43 2.89791e-06 19.3862 2.89791e-06 19.3462C-0.000546021 18.8873 0.0768907 18.4316 0.22903 17.9987C0.375876 17.581 0.590377 17.1904 0.863927 16.8423C1.13483 16.4968 1.45989 16.1974 1.82648 15.9558C2.19796 15.7103 2.60751 15.5281 3.03854 15.4165C2.98012 15.9919 2.95085 16.5699 2.95081 17.1482C2.95588 21.6242 4.73617 25.9153 7.90111 29.0803C11.0661 32.2452 15.3572 34.0255 19.8331 34.0305C22.0292 34.0345 24.2048 33.6075 26.2365 32.7738C26.0567 32.9059 25.8762 33.0328 25.7 33.1517C24.8182 33.7481 23.8805 34.2573 22.9 34.6718C21.9029 35.0932 20.8666 35.415 19.8062 35.6325C18.7128 35.8557 17.5997 35.968 16.4838 35.9676Z" fill="#184E7F"/>
    <path d="M32.3266 0.334757C33.387 0.552063 34.4233 0.873775 35.4203 1.29519C36.4006 1.71014 37.3384 2.21921 38.2204 2.81526C39.0959 3.40674 39.9128 4.08063 40.6599 4.82771C41.4068 5.57515 42.0808 6.39197 42.6729 7.26713C43.2685 8.14928 43.7774 9.08701 44.1923 10.0672C44.6141 11.0643 44.9359 12.1008 45.1529 13.1614C45.376 14.2547 45.4884 15.3677 45.4883 16.4835H45.4858C45.4872 16.5295 45.4883 16.5757 45.4883 16.6219C45.4883 17.6982 45.0607 18.7305 44.2996 19.4915C43.5386 20.2526 42.5063 20.6802 41.43 20.6802C40.3537 20.6802 39.3215 20.2526 38.5604 19.4915C37.7993 18.7305 37.3718 17.6982 37.3718 16.6219C37.3718 16.5411 37.3741 16.4605 37.3788 16.3809C37.3679 14.1514 36.4725 12.0174 34.8891 10.4478C33.3058 8.87819 31.1641 8.00133 28.9346 8.00989C26.7051 8.01845 24.5702 8.91173 22.9989 10.4935C21.4277 12.0752 20.5486 14.216 20.5549 16.4455V16.4835H20.5038C20.5038 16.5073 20.5038 16.5315 20.5038 16.5554C20.4977 17.6101 20.0745 18.6195 19.3266 19.3632C18.5786 20.1068 17.5668 20.5242 16.5121 20.5242C15.4574 20.5242 14.4456 20.1068 13.6976 19.3632C12.9497 18.6195 12.5264 17.6101 12.5204 16.5554C12.5204 16.5315 12.5204 16.5075 12.5204 16.4835H12.5213C12.5212 15.3677 12.6333 14.2548 12.856 13.1614C13.0734 12.1009 13.3951 11.0644 13.8164 10.0671C14.2317 9.08704 14.7407 8.14938 15.3361 7.26713C16.5221 5.5123 18.0334 4.00107 19.7884 2.81526C21.5712 1.6095 23.574 0.766626 25.6824 0.334757C27.8747 -0.111567 30.1344 -0.111567 32.3266 0.334757Z" fill="#4ADDCA"/>
    <path opacity="0.34" d="M41.4283 20.6804C40.8255 20.6814 40.23 20.5475 39.6856 20.2888C39.1411 20.03 38.6613 19.6529 38.2813 19.1849C38.2994 18.8741 38.3085 18.5579 38.3085 18.2449C38.3038 14.0157 36.6216 9.96107 33.6311 6.97056C30.6406 3.98005 26.586 2.29792 22.3568 2.29317C21.7087 2.29315 21.0613 2.33211 20.418 2.40987C21.1124 1.98539 21.8374 1.61303 22.587 1.29579C23.584 0.874117 24.6204 0.55228 25.6809 0.335156C26.7743 0.111995 27.8874 -9.19529e-05 29.0033 0.00049054C30.1191 -6.23787e-05 31.2322 0.112024 32.3254 0.335156C33.386 0.552045 34.4223 0.873889 35.4193 1.29579C36.3996 1.7106 37.3374 2.21959 38.2194 2.81568C39.0949 3.40706 39.9118 4.08104 40.6589 4.82821C41.4058 5.57569 42.0798 6.3925 42.6719 7.26771C43.2675 8.14987 43.7763 9.08766 44.1913 10.0678C44.613 11.0649 44.9348 12.1014 45.1518 13.162C45.3748 14.2553 45.487 15.3682 45.4868 16.484H45.4843C45.486 16.5364 45.4868 16.5814 45.4868 16.6218C45.4879 17.1645 45.3794 17.7018 45.1678 18.2016C44.9641 18.6838 44.6687 19.122 44.298 19.4917C43.9284 19.8622 43.4906 20.1575 43.0086 20.3613C42.5087 20.573 41.9712 20.6815 41.4283 20.6804Z" fill="#184E7F"/>
    <path d="M41.9229 20.6503C41.9954 20.0282 42.0318 19.4024 42.0318 18.776C42.027 14.5468 40.3449 10.4922 37.3544 7.50167C34.3639 4.51116 30.3092 2.82903 26.08 2.82428C22.3519 2.82578 18.7417 4.13138 15.875 6.51494C16.3277 5.91979 16.82 5.35575 17.3484 4.82669C18.0955 4.07957 18.9124 3.40572 19.7878 2.81428C20.6699 2.21836 21.6076 1.70939 22.5879 1.2944C23.5849 0.872732 24.6212 0.550895 25.6817 0.333762C26.7753 0.110899 27.8885 -0.00089847 29.0045 5.43739e-06C30.1203 -0.000547481 31.2333 0.111539 32.3266 0.334671C33.3871 0.551601 34.4235 0.873444 35.4204 1.29531C36.4008 1.71011 37.3386 2.21909 38.2205 2.81519C39.0961 3.40658 39.913 4.08056 40.6601 4.82773C41.4069 5.57526 42.0809 6.39207 42.673 7.26722C43.2686 8.14939 43.7775 9.08717 44.1924 10.0674C44.6142 11.0645 44.936 12.1009 45.153 13.1615C45.376 14.2548 45.4882 15.3677 45.488 16.4835H45.4855C45.4872 16.5234 45.488 16.5679 45.488 16.6214C45.4886 17.6176 45.1222 18.5793 44.4587 19.3224C43.8032 20.0586 42.9018 20.5305 41.9233 20.6499L41.9229 20.6503Z" fill="#184E7F"/>
    <path d="M64.0182 25.1195C60.903 25.1195 58.5476 22.8401 58.5476 19.8009V11.7849H61.4918V19.7629C61.4918 21.2065 62.5556 22.2893 64.0182 22.2893C65.4618 22.2893 66.5446 21.2065 66.5446 19.7629V11.7849H69.4888V19.8009C69.4888 22.8401 67.1144 25.1195 64.0182 25.1195Z" fill="#184E7F"/>
    <path d="M78.3599 24.3041C76.3084 24.3041 74.2189 23.4873 72.9842 22.2526L74.9977 19.7643C75.9665 20.733 77.4291 21.3978 78.7588 21.3978C79.7845 21.3978 80.7533 20.98 80.8292 20.3151C80.9432 19.6123 79.9745 19.3464 78.5878 19.0045C75.9665 18.3396 74.2569 17.0479 74.5798 14.7305C74.9027 12.3181 77.2012 10.7415 80.2974 10.7415C82.3299 10.7415 83.9255 11.4444 84.7802 12.3561L82.9187 14.8445C82.2539 14.1417 81.0382 13.6478 79.8605 13.6478C78.7968 13.6478 78.0179 14.0467 77.942 14.6166C77.847 15.2814 78.8347 15.6423 79.9555 15.9082C81.0572 16.1552 84.6473 17.0669 84.2104 20.1822C83.8685 22.6515 81.3231 24.3041 78.3599 24.3041ZM92.3016 14.3886H95.7397L89.7182 25.5198C88.9204 26.9824 87.5338 27.9132 86.0902 27.9132C85.1594 27.9132 84.0767 27.5143 83.4308 26.9065L84.9505 24.4941C85.1974 24.76 85.5963 24.931 85.9762 24.931C86.3941 24.931 86.793 24.741 87.0779 24.2661L87.3059 23.8862L84.8745 14.3886H88.3886L89.5473 20.0682L92.3016 14.3886ZM98.5822 24.3041C96.7017 24.3041 95.448 23.6013 94.5742 22.8605L96.2078 20.923C96.8916 21.5118 97.7274 21.9297 98.8101 21.9297C99.6269 21.9297 100.216 21.7018 100.273 21.2839C100.349 20.828 99.7029 20.657 98.8101 20.4671C97.3475 20.1442 95.334 19.6693 95.6569 17.3519C95.9608 15.2054 97.9743 14.1607 100.235 14.1607C101.982 14.1607 103.141 14.7685 103.977 15.4144L102.343 17.3519C101.64 16.877 100.938 16.5351 100.007 16.5351C99.361 16.5351 98.8101 16.706 98.7341 17.1049C98.6772 17.5608 99.323 17.7128 100.197 17.9027C101.659 18.1877 103.692 18.6815 103.35 20.9989C103.065 23.1644 101.014 24.3041 98.5822 24.3041ZM109.022 17.1999L108.585 20.2581C108.49 20.923 108.813 21.3219 109.573 21.3219C110.047 21.3219 110.484 21.1699 110.864 20.9989L110.465 23.8672C109.838 24.1711 109.231 24.3041 108.49 24.3041C106.001 24.3041 105.147 22.8225 105.432 20.771L105.944 17.1999H104.558L104.957 14.3886H106.343L106.666 12.0522H109.743L109.421 14.3886H111.795L111.396 17.1999H109.022ZM117.898 14.1607C120.823 14.1607 122.722 16.3261 122.286 19.2894C122.248 19.5553 122.191 19.9162 122.096 20.1632H115.181C115.371 21.0939 116.112 21.6638 117.176 21.6638C118.164 21.6638 119.037 21.1699 119.512 20.714L121.298 22.4806C120.101 23.6013 118.467 24.3041 116.701 24.3041C113.605 24.3041 111.61 22.1007 112.009 19.1754C112.427 16.3261 114.953 14.1607 117.898 14.1607ZM117.499 16.782C116.625 16.782 115.846 17.3519 115.428 18.2636H119.151C119.018 17.3519 118.373 16.782 117.499 16.782ZM136.244 14.1607C138.428 14.1607 139.606 15.5663 139.302 17.7318L138.409 24.0762H135.332L136.111 18.6625C136.225 17.7508 135.75 17.1429 134.857 17.1429C133.984 17.1429 133.3 17.6748 133.072 18.4916L132.293 24.0762H129.216L129.976 18.6625C130.109 17.7508 129.615 17.1429 128.722 17.1429C127.791 17.1429 127.05 17.7698 126.917 18.7005L126.158 24.0762H123.08L124.448 14.3886H127.525L127.411 15.2054C128.209 14.5216 129.14 14.1607 130.204 14.1607C131.476 14.1607 132.407 14.6735 132.882 15.5663C133.813 14.6356 134.952 14.1607 136.244 14.1607Z" fill="#4ADDCA"/>
</svg>
